<?xml version="1.0" ?><svg enable-background="new 0 0 1080 1080" id="katman_1" version="1.1" viewBox="0 0 1080 1080" xml:space="preserve" xmlns="http://www.w3.org/2000/svg" xmlns:xlink="http://www.w3.org/1999/xlink"><g><path d="M189.9,892.1c-23.9-23.4-44.7-49.3-63.1-77.1c-35.7-53.9-59.8-112.7-72.5-176c-4.4-22-7.2-44.2-8.5-66.6   c-1.4-23.2-1.5-46.3,0.4-69.4C54,408.5,85.4,322.7,142,246.6c70.1-94.1,162.2-156,275.5-186.2c26.2-7,52.8-11.2,79.8-13.6   c27.6-2.5,55.3-2.9,82.8-0.6c98.2,8.1,186.5,42,264.7,102c16.8,12.9,32.7,26.9,47.7,41.8c0.6,0.6,1.4,1,1.3,2   c-0.5,2.1-2.1,3.4-3.5,4.8c-45.4,45.4-90.7,90.8-136.2,136.1c-4.8,4.8-9.9,9.3-15.1,13.7c-0.9,0.4-1.8,0.5-2.8,0.6   c-4.6,0.2-7.7,2.9-10.1,6.4c-2.8,4-4.9,8.3-7.3,12.5c-1.3,2.3-2.3,4.8-4.5,6.4c-2.3,1.4-4.1,3.4-6,5.3   c-31.2,31.2-62.4,62.4-93.6,93.6c-1.4,1.4-2.7,2.9-4.4,4.1c-2,1.3-3.1,0.5-3.5-1.6c-0.4-31.4-0.1-62.8-0.2-94.3   c0-5.5,0.4-11-0.4-16.4c-0.7-4.2-0.8-8.6-2.5-12.7c-4.4-11-13.3-16.3-24.1-18.9c-6.5-1.5-13.1-2.4-19.8-2.4   c-36.7,0.1-73.3-0.1-110,0.1c-12.1,0-22.7,3.7-29.8,14.3c-5.1,7.8-5.4,16.3-2.4,24.9c1.9,5.2,6.5,6.9,11.4,7.8   c2.9,0.5,6,0.7,8.9,1.2c8.1,1.5,12.6,6,14,14.1c0.4,2.3,0.3,4.6,0.3,7c0,39.8,0,79.7,0,119.5c0,1.5,0,3-0.1,4.5   c-0.5,6.6-5,10.1-11.6,9.2c-6.8-0.9-12.1-4.2-16.4-9.6c-9.1-11.5-17.7-23.4-26-35.5c-16.8-24.5-32.3-49.7-45.3-76.5   c-8.5-17.4-18.3-34.1-30.2-49.4c-2.2-2.8-4.5-5.4-7.1-7.7c-4.3-4-9.2-6-15.3-6c-34.7,0.2-69.3,0.1-104,0.1   c-10.4,0-14.9,3.2-17.6,13.4c-2.9,10.8-2.1,21.4,2,31.8c6.3,16,14.1,31.3,22.3,46.4c18.6,34.3,38.9,67.6,61,99.8   c15.3,22.2,32.2,43.3,48.8,64.6c15.3,19.6,31.1,38.7,47.4,57.4c9.3,10.7,19.3,20.7,28.6,31.3c0.3,0.4,0.4,0.9,0.4,1.4   c-0.4,2.1-2.1,3.3-3.5,4.7c-45.9,46-91.6,92.2-138,137.7c-17.9,17.6-35.7,35.5-53.7,53C193,890.1,191.9,891.7,189.9,892.1z" fill="#4C74A2"/><path d="M1034.8,490c3.5,25.8,2.5,51.8,2,77.7c-0.3,15-2.4,30-4.5,44.9c-4.4,30.8-11.6,60.9-21.7,90.3   c-18.6,53.9-45.8,103.2-81.4,147.9c-11.8,14.9-24.4,29.1-37.9,42.4c-32.5,32-68.4,59.4-108.3,81.6c-42,23.4-86.5,40.4-133.4,50.9   c-17.3,3.9-34.7,6.5-52.3,8.6c-23.3,2.9-46.7,3.1-70.1,2.6c-1.9-1.6-2.5-3.9-3.4-6c-17.1-42.7-34.4-85.3-51.6-127.9   c-19.7-48.8-39.4-97.6-59.2-146.4c-7.3-17.9-14.2-35.9-21.7-53.7c-0.9-2.1-3.5-4.6-0.4-7c3.2,0.4,5.5,2.4,7.6,4.5   c16.3,16.4,35.9,27.9,55.6,39.6c13.2,7.8,27.2,10.2,41.9,10.9c20,1,39.9,1,59.9,1c8.3,0,16.6-0.9,24.9-1.3   c9.8-0.4,16.1-6.7,19.8-15.3c3-6.9,4.3-14.3,5-21.8c1-11,1.3-21.9,1.1-32.9c-0.1-6,0.8-12,2.2-17.8c3.9-16.3,17.8-21,30.7-10.2   c12.9,10.8,24.3,23.2,35.9,35.4c14.8,15.6,29.9,30.9,45.7,45.5c4.9,4.5,10.1,8.7,15.5,12.6c4.6,3.3,9.5,5,15.3,4.9   c37.5-0.2,75-0.1,112.5-0.1c19.8,0,32.1-9.5,38.2-28.2c2.1-6.3,1.3-11.4-1.4-17.1c-5.7-11.9-14.3-21.7-22.9-31.4   c-14.4-16.4-29.6-32-44.6-47.9c-14.9-15.9-30.1-31.6-43.5-48.8c-6.1-7.8-6.5-14.9-1.7-23.4c8.7-15.3,18.9-29.4,29.1-43.6   c15.6-21.7,33.5-41.4,50.1-62.3c9.2-11.6,17.5-23.9,24.5-37.1c8.1-15.3,11.2-31.2,7.4-48.2c2.1-2.4,3.6-0.4,4.8,0.9   c4.1,4,8.5,7.5,12.5,11.5c12.9,13.2,26.6,25.7,39.9,38.5c17.7,17.2,35.5,34.1,53.3,51.2c6.5,6.2,13,12.5,19.4,18.7   C1031.6,485.3,1033.5,487.5,1034.8,490z" fill="#203247"/><path d="M390.9,696c-0.7,5.3,2.8,9.2,4.6,13.6c18.5,46.4,37.2,92.7,55.9,139.1c13.3,33,26.6,65.9,39.9,98.8   c11.6,28.6,23.2,57.2,34.8,85.9c0.4,1.1,0.6,2.2,0.9,3.3c-15.3,0.3-30.6-1.3-45.8-3.1c-33.2-4-65.6-11.1-97.3-21.7   c-73.1-24.4-137-63.8-192.1-117.7c-0.7-0.7-1.3-1.5-2-2.2c2.9-3,5.6-6.1,8.6-9c62.7-61.6,124.8-123.9,187-186   c1.2-1.2,2.5-2.2,3.8-3.3C390.6,693.9,391.5,694.5,390.9,696z" fill="#365475"/><path d="M1034.8,490c-8.9-8-17.1-16.7-25.9-24.9c-14.9-13.8-29-28.4-43.8-42.3C948.5,407,932,391,915.4,375.2   c-4.8-4.6-9-10.2-15.3-13.2c-2-0.2-3.1-1.7-4.3-3.1c-6.8-7.7-15.4-11.4-25.6-11.4c-40.9,0-81.8,0-122.7,0c-2.9,0-6.1,0.8-8.5-1.7   c4.2-5.4,9.9-9.3,14.7-14.1c45.3-45.3,90.7-90.6,136-135.9c1.3-1.3,2.7-2.5,4-3.7c9.3,8.1,17.2,17.5,25.2,26.9   c52,61.4,87.3,131.3,105.6,209.7c4.4,18.7,7.8,37.7,9.5,56.9C1034.2,487.1,1034.5,488.5,1034.8,490z" fill="#365475"/><path d="M739.1,345.8c10.5,0.1,21,0.2,31.4,0.2c32.4,0,64.9,0.2,97.3-0.1c13.8-0.1,24.5,4.6,32.3,16.1   c4.5,13.9,2.9,27.5-2.7,40.7c-8.8,20.8-22.2,38.6-36.5,55.7c-24.1,28.7-47.8,57.6-67.4,89.7c-10.4,17-10.4,18.3,2.2,33.6   c19.2,23.3,40.6,44.5,61.2,66.6c13.5,14.5,27.3,28.8,38.9,44.9c4,5.6,7,11.7,9.6,18c0.7,1.8,0.8,3.6,0.5,5.4   c-3.7,22.3-18.7,35.3-41.4,35.4c-38.5,0.2-77,0-115.5,0.1c-5.5,0-9.8-2.8-14-5.8c-15.7-11.4-28.9-25.6-42.5-39.3   c-16.9-16.8-32.6-34.8-50.2-50.8c-3.4-3.1-6.7-6.4-11.5-7.5c-8.6-2-15.1,1.1-18.7,9.1c-2.9,6.7-3.7,13.8-3.9,20.9   c-0.3,14,0.1,28-2,41.9c-0.7,4.5-1.7,8.8-3.3,13c-4.7,12.7-12.3,18-25.9,18.6c-32,1.3-64,1-95.9-1.2c-8.5-0.6-16-4.1-23.4-8   c-22.9-12.2-44.5-26-63-44.4c-1-1-2.4-1.7-3.5-2.5c0.1-1.3-0.9-1.7-1.7-2.2c-0.1-0.3-0.1-0.6-0.2-0.9   c10.3-10.9,20.8-21.5,31.8-31.7c2.2-2,4.5-4,6.6-6.1c51.2-51.2,102.4-102.4,153.6-153.6c6.6-6.6,13.8-12.5,20.3-19.2   c3-3.1,4.4-6.3,4.4-10.6c-0.1-34.3-0.1-68.6,0-102.9c0-2.4-0.8-5,1.4-7.1c1.3,2.1,0.8,4.5,0.8,6.8c0.1,35.8,0.1,71.6,0.2,107.4   c1.6,1.8,1.2,4.1,1.2,6.2c0.1,11.5,0,23,0,34.4c0,2-0.1,4,0.4,6c1.7,7.1,8.5,9.6,14.7,5.6c16.2-10.5,27.8-25.1,37.3-41.6   c11.1-19.2,19.6-39.6,27.9-60.2c6.9-17.1,13.9-34.2,21.9-50.9c0.7-1.4,1.4-2.6,2.5-3.7c1.3-2,2.6-4,3.8-6.1   c5.4-5.2,10.6-10.7,16-15.9c1.1-1.1,1.8-2.3,2.1-3.8C737,346.1,738,345.9,739.1,345.8z" fill="#DCDCDC"/><path d="M607.1,361.8c0,36.6-0.2,73.3,0,109.9c0,4.9-1.4,8.3-4.9,11.7c-59.8,57.5-117.4,117.1-176.6,175.2   c-10.9,10.7-21.8,21.5-32.8,32.1c-1.1,1-2,2.3-3.7,2.3c-16.5-15.8-31.4-33.1-46.1-50.6c-26.4-31.4-51.9-63.4-75.6-96.8   c-25.7-36.2-48.7-74.3-69.3-113.7c-8.2-15.6-16.9-31-21.2-48.3c-2.6-10.5-1.7-21.2,4-30.9c2.7-4.5,6.8-6.7,12-6.7c37,0,74,0,111,0   c5.5,0,9.4,3,13,6.5c8.7,8.4,15.1,18.6,21.4,28.7c13.2,21,22.6,44.1,35.5,65.2c15.9,26.2,33,51.6,52,75.6c4,5.1,8.9,7.8,15.1,8.5   c6.4,0.7,9.9-2.1,9.9-8.6c0-42,0.1-84,0-126c0-11.6-3.6-15.5-15.3-17.5c-1.3-0.2-2.6-0.5-3.9-0.6c-13.5-0.9-18.1-7.6-17-21.7   c1.3-16.7,14-27.9,32-28.1c39.8-0.4,79.7-0.2,119.5,0c6.3,0,12.5,1.4,18.6,3.5C599.2,336.8,606.5,346.4,607.1,361.8z" fill="#FEFEFE"/><path d="M714.1,372c-4.3,10-8.7,20.1-13,30.1c-10.2,24-19,48.5-30.9,71.7c-7.6,14.8-16,29.1-27.7,41.3   c-5.4,5.7-11.9,10.2-18.2,14.8c-6.7,5-16.2-0.1-16.3-8.9c-0.3-15,0-30,0.1-45c4.3-4.2,8.6-8.3,12.9-12.5   c29.3-29.3,58.6-58.6,88-87.9C710.4,374.1,711.6,372.1,714.1,372z" fill="#365475"/><path d="M736,346.2c0.3,0.8,2.2,1.1,1,2.2c-6.1,6.1-12.2,12-18.3,18c-0.1,0-0.5-0.3-0.8-0.5   c2.2-5.2,5.1-10.1,8.5-14.6C728.8,348.1,731.6,345.7,736,346.2z" fill="#FCFCFD"/></g></svg>